<svg width="24" height="24" viewBox="0 0 24 24" fill="none" xmlns="http://www.w3.org/2000/svg">
<path fill-rule="evenodd" clip-rule="evenodd" d="M20.4004 12C20.4004 12.497 19.9974 12.9 19.5004 12.9L6.73489 12.9L11.7242 17.6512C12.0825 17.9958 12.0937 18.5655 11.7491 18.9238C11.4046 19.2821 10.8349 19.2933 10.4766 18.9487L3.87659 12.6487C3.70012 12.4791 3.60039 12.2448 3.60039 12C3.60039 11.7552 3.70012 11.5209 3.87659 11.3512L10.4766 5.05124C10.8349 4.70672 11.4046 4.7179 11.7491 5.07619C12.0937 5.43449 12.0825 6.00422 11.7242 6.34874L6.73489 11.1L19.5004 11.1C19.9974 11.1 20.4004 11.5029 20.4004 12Z" fill="#ffffff"/>
</svg>
