<svg width="20" height="20" viewBox="0 0 20 20" fill="none" xmlns="http://www.w3.org/2000/svg">
<path d="M10 1.875C10.3452 1.875 10.625 2.15482 10.625 2.5V4.375C10.625 4.72018 10.3452 5 10 5C9.65482 5 9.375 4.72018 9.375 4.375V2.5C9.375 2.15482 9.65482 1.875 10 1.875Z" fill="#A685FA"/>
<path d="M6.25 10C6.25 7.92893 7.92893 6.25 10 6.25C12.0711 6.25 13.75 7.92893 13.75 10C13.75 12.0711 12.0711 13.75 10 13.75C7.92893 13.75 6.25 12.0711 6.25 10Z" fill="#A685FA"/>
<path d="M15.7453 5.13862C15.9894 4.89454 15.9894 4.49881 15.7453 4.25473C15.5012 4.01065 15.1055 4.01065 14.8614 4.25473L13.5356 5.58056C13.2915 5.82463 13.2915 6.22036 13.5356 6.46444C13.7797 6.70852 14.1754 6.70852 14.4195 6.46444L15.7453 5.13862Z" fill="#A685FA"/>
<path d="M18.125 10C18.125 10.3452 17.8452 10.625 17.5 10.625H15.625C15.2798 10.625 15 10.3452 15 10C15 9.65482 15.2798 9.375 15.625 9.375H17.5C17.8452 9.375 18.125 9.65482 18.125 10Z" fill="#A685FA"/>
<path d="M14.8613 15.7452C15.1054 15.9893 15.5011 15.9893 15.7452 15.7452C15.9893 15.5011 15.9893 15.1054 15.7452 14.8613L14.4194 13.5355C14.1753 13.2914 13.7796 13.2914 13.5355 13.5355C13.2914 13.7796 13.2914 14.1753 13.5355 14.4194L14.8613 15.7452Z" fill="#A685FA"/>
<path d="M10 15C10.3452 15 10.625 15.2798 10.625 15.625V17.5C10.625 17.8452 10.3452 18.125 10 18.125C9.65482 18.125 9.375 17.8452 9.375 17.5V15.625C9.375 15.2798 9.65482 15 10 15Z" fill="#A685FA"/>
<path d="M6.46459 14.4194C6.70866 14.1753 6.70866 13.7796 6.46459 13.5355C6.22051 13.2914 5.82478 13.2914 5.5807 13.5355L4.25488 14.8613C4.0108 15.1054 4.0108 15.5011 4.25488 15.7452C4.49895 15.9893 4.89468 15.9893 5.13876 15.7452L6.46459 14.4194Z" fill="#A685FA"/>
<path d="M5 10C5 10.3452 4.72018 10.625 4.375 10.625H2.5C2.15482 10.625 1.875 10.3452 1.875 10C1.875 9.65482 2.15482 9.375 2.5 9.375H4.375C4.72018 9.375 5 9.65482 5 10Z" fill="#A685FA"/>
<path d="M5.58061 6.46443C5.82469 6.70851 6.22041 6.70851 6.46449 6.46443C6.70857 6.22036 6.70857 5.82463 6.46449 5.58055L5.13867 4.25472C4.89459 4.01065 4.49886 4.01065 4.25478 4.25472C4.0107 4.4988 4.0107 4.89453 4.25478 5.13861L5.58061 6.46443Z" fill="#A685FA"/>
</svg>
